<svg width="512" height="512" viewBox="0 0 512 512" fill="none" xmlns="http://www.w3.org/2000/svg">
  <rect width="512" height="512" rx="128" fill="black"/>
  <path d="M256 400C311.228 400 356 355.228 356 300C356 244.772 311.228 160 256 112C200.772 160 156 244.772 156 300C156 355.228 200.772 400 256 400Z" fill="#5E5CE6" fill-opacity="0.2"/>
  <path d="M256 380C300.183 380 336 344.183 336 300C336 255.817 300.183 180 256 140C211.817 180 176 255.817 176 300C176 344.183 211.817 380 256 380Z" fill="#5E5CE6"/>
  <path d="M256 360C289.137 360 316 333.137 316 300C316 266.863 289.137 210 256 180C222.863 210 196 266.863 196 300C196 333.137 222.863 360 256 360Z" fill="#A78BFA"/>
</svg>
